<?xml version="1.0" encoding="UTF-8" standalone="no"?>
<!-- Created with Inkscape (http://www.inkscape.org/) -->

<svg
   xmlns:dc="http://purl.org/dc/elements/1.1/"
   xmlns:cc="http://creativecommons.org/ns#"
   xmlns:rdf="http://www.w3.org/1999/02/22-rdf-syntax-ns#"
   xmlns:svg="http://www.w3.org/2000/svg"
   xmlns="http://www.w3.org/2000/svg"
   xmlns:sodipodi="http://sodipodi.sourceforge.net/DTD/sodipodi-0.dtd"
   xmlns:inkscape="http://www.inkscape.org/namespaces/inkscape"
   width="506.44852"
   height="189.2303"
   viewBox="0 0 133.99783 50.067185"
   version="1.1"
   id="svg1810"
   inkscape:version="0.92.3 (2405546, 2018-03-11)"
   sodipodi:docname="colibri-bird-title-logo.svg">
  <defs
     id="defs1804" />
  <sodipodi:namedview
     id="base"
     pagecolor="#ffffff"
     bordercolor="#666666"
     borderopacity="1.0"
     inkscape:pageopacity="0.0"
     inkscape:pageshadow="2"
     inkscape:zoom="0.35"
     inkscape:cx="242.61515"
     inkscape:cy="-74.272124"
     inkscape:document-units="px"
     inkscape:current-layer="layer1"
     showgrid="false"
     units="px"
     showborder="false"
     inkscape:window-width="1366"
     inkscape:window-height="745"
     inkscape:window-x="-8"
     inkscape:window-y="-8"
     inkscape:window-maximized="1"
     fit-margin-top="0"
     fit-margin-left="0"
     fit-margin-right="0"
     fit-margin-bottom="0" />
  <metadata
     id="metadata1807">
    <rdf:RDF>
      <cc:Work
         rdf:about="">
        <dc:format>image/svg+xml</dc:format>
        <dc:type
           rdf:resource="http://purl.org/dc/dcmitype/StillImage" />
        <dc:title></dc:title>
      </cc:Work>
    </rdf:RDF>
  </metadata>
  <g
     inkscape:label="Layer 1"
     inkscape:groupmode="layer"
     id="layer1"
     transform="translate(109.17109,-79.114974)">
    <g
       transform="matrix(1.6698807,0,0,1.6698807,141.7181,-105.72083)"
       id="layer1-2"
       inkscape:label="Layer 1">
      <text
         id="text873"
         y="109.58651"
         x="-67.933556"
         style="font-style:normal;font-variant:normal;font-weight:normal;font-stretch:normal;font-size:11.28889084px;line-height:1.25;font-family:'Blackadder ITC';-inkscape-font-specification:'Blackadder ITC, Normal';font-variant-ligatures:normal;font-variant-caps:normal;font-variant-numeric:normal;font-feature-settings:normal;text-align:start;letter-spacing:0px;word-spacing:0px;writing-mode:lr-tb;text-anchor:start;fill:#000000;fill-opacity:1;stroke:none;stroke-width:0.26458335"
         xml:space="preserve"><tspan
           style="stroke-width:0.26458335"
           y="118.88738"
           x="-67.933556"
           id="tspan871"
           sodipodi:role="line" /></text>
      <g
         id="text877"
         style="font-style:normal;font-variant:normal;font-weight:normal;font-stretch:normal;font-size:11.28889084px;line-height:1.25;font-family:Arial;-inkscape-font-specification:'Arial, Normal';font-variant-ligatures:normal;font-variant-caps:normal;font-variant-numeric:normal;font-feature-settings:normal;text-align:start;letter-spacing:0px;word-spacing:0px;writing-mode:lr-tb;text-anchor:start;fill:#000000;fill-opacity:1;stroke:none;stroke-width:0.26458335"
         aria-label="colibritech">
        <path
           inkscape:connector-curvature="0"
           id="path879"
           style="stroke-width:0.26458335"
           d="m -115.53021,125.58513 0.97565,0.12678 q -0.15985,1.00873 -0.82131,1.58199 -0.65595,0.56775 -1.61506,0.56775 -1.20165,0 -1.93477,-0.78272 -0.7276,-0.78824 -0.7276,-2.25447 0,-0.94809 0.31419,-1.65916 0.31419,-0.71107 0.9536,-1.06385 0.64492,-0.35829 1.40009,-0.35829 0.9536,0 1.55994,0.48507 0.60633,0.47956 0.77721,1.36702 l -0.96463,0.14883 q -0.1378,-0.58981 -0.49058,-0.88746 -0.34726,-0.29766 -0.84336,-0.29766 -0.74965,0 -1.21818,0.54019 -0.46854,0.53468 -0.46854,1.69775 0,1.1796 0.452,1.71428 0.452,0.53468 1.1796,0.53468 0.58429,0 0.97565,-0.35829 0.39137,-0.35829 0.4961,-1.10244 z" />
        <path
           inkscape:connector-curvature="0"
           id="path881"
           style="stroke-width:0.26458335"
           d="m -114.075,124.80241 q 0,-1.62609 0.90399,-2.40881 0.75516,-0.65044 1.84106,-0.65044 1.20716,0 1.97335,0.79375 0.76619,0.78824 0.76619,2.18282 0,1.12999 -0.34176,1.78042 -0.33624,0.64492 -0.98667,1.00321 -0.64492,0.35829 -1.41111,0.35829 -1.22921,0 -1.98989,-0.78823 -0.75516,-0.78824 -0.75516,-2.27101 z m 1.01974,0 q 0,1.12448 0.49059,1.68672 0.49058,0.55673 1.23472,0.55673 0.73863,0 1.22921,-0.56224 0.49058,-0.56224 0.49058,-1.71428 0,-1.0859 -0.49609,-1.64263 -0.49059,-0.56224 -1.2237,-0.56224 -0.74414,0 -1.23472,0.55673 -0.49059,0.55673 -0.49059,1.68121 z" />
        <path
           inkscape:connector-curvature="0"
           id="path883"
           style="stroke-width:0.26458335"
           d="m -107.44388,127.72936 v -8.08081 h 0.99218 v 8.08081 z" />
        <path
           inkscape:connector-curvature="0"
           id="path885"
           style="stroke-width:0.26458335"
           d="m -104.90278,120.78956 v -1.14101 h 0.99219 v 1.14101 z m 0,6.9398 v -5.8539 h 0.99219 v 5.8539 z" />
        <path
           inkscape:connector-curvature="0"
           id="path887"
           style="stroke-width:0.26458335"
           d="m -101.47973,127.72936 h -0.92053 v -8.08081 h 0.99219 v 2.88285 q 0.62838,-0.78824 1.604032,-0.78824 0.540191,0 1.019748,0.22049 0.48507,0.21497 0.79375,0.61185 0.314193,0.39136 0.490582,0.94809 0.176389,0.55673 0.176389,1.19062 0,1.50482 -0.744141,2.32613 -0.744141,0.82131 -1.785938,0.82131 -1.036282,0 -1.626082,-0.8654 z m -0.011,-2.97105 q 0,1.05282 0.28663,1.52136 0.46854,0.76619 1.2678,0.76619 0.650434,0 1.124479,-0.56224 0.474046,-0.56776 0.474046,-1.68672 0,-1.14653 -0.457509,-1.69223 -0.451997,-0.54571 -1.096919,-0.54571 -0.650437,0 -1.124477,0.56775 -0.47405,0.56224 -0.47405,1.6316 z" />
        <path
           inkscape:connector-curvature="0"
           id="path889"
           style="stroke-width:0.26458335"
           d="m -96.121919,127.72936 v -5.8539 h 0.892969 v 0.88745 q 0.341753,-0.62287 0.628385,-0.82131 0.292144,-0.19844 0.63941,-0.19844 0.501606,0 1.019748,0.31971 l -0.341753,0.92053 q -0.363802,-0.21498 -0.727604,-0.21498 -0.325218,0 -0.584289,0.19844 -0.259071,0.19293 -0.369314,0.54019 -0.165365,0.52917 -0.165365,1.15756 v 3.06475 z" />
        <path
           inkscape:connector-curvature="0"
           id="path891"
           style="stroke-width:0.26458335"
           d="m -92.33507,120.78956 v -1.14101 h 0.992188 v 1.14101 z m 0,6.9398 v -5.8539 h 0.992188 v 5.8539 z" />
        <path
           inkscape:connector-curvature="0"
           id="path893"
           style="stroke-width:0.26458335"
           d="m -87.660763,126.84191 0.143316,0.87643 q -0.418924,0.0882 -0.749653,0.0882 -0.540191,0 -0.837847,-0.17087 -0.297657,-0.17088 -0.418924,-0.44649 -0.121268,-0.28112 -0.121268,-1.17409 v -3.36792 h -0.727604 v -0.7717 h 0.727604 v -1.4497 l 0.986676,-0.59531 v 2.04501 h 0.9977 v 0.7717 h -0.9977 v 3.42304 q 0,0.42444 0.04961,0.54571 0.05512,0.12126 0.170877,0.19292 0.121268,0.0717 0.341754,0.0717 0.165364,0 0.43546,-0.0386 z" />
        <path
           inkscape:connector-curvature="0"
           id="path895"
           style="stroke-width:0.26458335"
           d="m -82.688801,125.84421 1.025261,0.12678 q -0.242535,0.89848 -0.898481,1.39457 -0.655946,0.49609 -1.675695,0.49609 -1.284332,0 -2.039497,-0.78823 -0.749653,-0.79375 -0.749653,-2.2214 0,-1.47726 0.760678,-2.29306 0.760677,-0.8158 1.973351,-0.8158 1.174088,0 1.918229,0.79927 0.744141,0.79926 0.744141,2.24895 0,0.0882 -0.0055,0.26459 h -4.365626 q 0.05512,0.96462 0.545703,1.47726 0.490582,0.51263 1.223698,0.51263 0.545704,0 0.931554,-0.28664 0.385851,-0.28663 0.611849,-0.91501 z m -3.257682,-1.60404 h 3.268707 q -0.06615,-0.73863 -0.374827,-1.10794 -0.474045,-0.57327 -1.22921,-0.57327 -0.683507,0 -1.15204,0.45751 -0.463021,0.45751 -0.51263,1.2237 z" />
        <path
           inkscape:connector-curvature="0"
           id="path897"
           style="stroke-width:0.26458335"
           d="m -76.592358,125.58513 0.975651,0.12678 q -0.159853,1.00873 -0.821311,1.58199 -0.655946,0.56775 -1.615061,0.56775 -1.20165,0 -1.934766,-0.78272 -0.727604,-0.78824 -0.727604,-2.25447 0,-0.94809 0.314192,-1.65916 0.314193,-0.71107 0.953603,-1.06385 0.644922,-0.35829 1.400087,-0.35829 0.953603,0 1.55994,0.48507 0.606336,0.47956 0.777213,1.36702 l -0.964627,0.14883 q -0.137804,-0.58981 -0.490581,-0.88746 -0.347266,-0.29766 -0.84336,-0.29766 -0.749653,0 -1.218186,0.54019 -0.468533,0.53468 -0.468533,1.69775 0,1.1796 0.451997,1.71428 0.451996,0.53468 1.179601,0.53468 0.584288,0 0.975651,-0.35829 0.391363,-0.35829 0.496094,-1.10244 z" />
        <path
           inkscape:connector-curvature="0"
           id="path899"
           style="stroke-width:0.26458335"
           d="m -74.767837,127.72936 v -8.08081 h 0.992187 v 2.89939 q 0.694532,-0.80478 1.752865,-0.80478 0.650434,0 1.129992,0.25907 0.479557,0.25356 0.683507,0.70556 0.209462,0.452 0.209462,1.31189 v 3.70968 h -0.992188 v -3.70968 q 0,-0.74414 -0.325217,-1.08038 -0.319705,-0.34175 -0.909506,-0.34175 -0.440972,0 -0.832335,0.23151 -0.385851,0.226 -0.551215,0.61736 -0.165365,0.39136 -0.165365,1.08038 v 3.20256 z" />
      </g>
    </g>
    <g
       id="g2469"
       transform="translate(49.136905,-1.5119049)">
      <g
         id="g2458">
        <g
           id="g2448">
          <g
             id="g2439">
            <g
               id="g2431"
               transform="matrix(0.40070247,0,0,0.40070247,-169.95159,46.869479)">
              <g
                 transform="translate(0,-17.6)"
                 id="layer1-7"
                 inkscape:label="Layer 1" />
              <g
                 inkscape:label="Layer 2"
                 id="layer6">
                <path
                   sodipodi:nodetypes="cccccc"
                   inkscape:connector-curvature="0"
                   id="path6551"
                   d="m 98.638489,114.22716 c -1.422935,-6.96111 18.057041,-23.974706 28.760881,-7.75088 l 49.26632,-21.381741 -45.00545,23.787191 c -5.41395,2.31636 -6.74169,4.63271 -7.98913,6.94907 19.61927,70.50692 -60.401616,41.04123 -65.24459,93.27784"
                   style="fill:none;stroke:#001500;stroke-width:1.85099995;stroke-linecap:butt;stroke-linejoin:miter;stroke-miterlimit:4;stroke-dasharray:none;stroke-opacity:1" />
                <path
                   sodipodi:nodetypes="ccc"
                   inkscape:connector-curvature="0"
                   id="path6553"
                   d="M 132.72546,137.74708 C 101.70855,118.05712 69.525938,101.15698 29.399336,103.26902 62.88025,116.55579 90.180189,135.15979 108.75806,161.267"
                   style="fill:none;stroke:#001500;stroke-width:1.85099995;stroke-linecap:butt;stroke-linejoin:miter;stroke-miterlimit:4;stroke-dasharray:none;stroke-dashoffset:0;stroke-opacity:1" />
              </g>
            </g>
          </g>
        </g>
      </g>
    </g>
  </g>
</svg>
