<?xml version="1.0" encoding="UTF-8" standalone="no"?>
<!-- Created with Inkscape (http://www.inkscape.org/) -->

<svg
   xmlns:dc="http://purl.org/dc/elements/1.1/"
   xmlns:cc="http://creativecommons.org/ns#"
   xmlns:rdf="http://www.w3.org/1999/02/22-rdf-syntax-ns#"
   xmlns:svg="http://www.w3.org/2000/svg"
   xmlns="http://www.w3.org/2000/svg"
   xmlns:sodipodi="http://sodipodi.sourceforge.net/DTD/sodipodi-0.dtd"
   xmlns:inkscape="http://www.inkscape.org/namespaces/inkscape"
   width="456.79303"
   height="449.16229"
   viewBox="0 0 120.85982 118.84086"
   version="1.1"
   id="svg8"
   inkscape:version="0.92.3 (2405546, 2018-03-11)"
   sodipodi:docname="html2.svg">
  <defs
     id="defs2" />
  <sodipodi:namedview
     id="base"
     pagecolor="#ffffff"
     bordercolor="#666666"
     borderopacity="1.0"
     inkscape:pageopacity="0.0"
     inkscape:pageshadow="2"
     inkscape:zoom="0.35"
     inkscape:cx="208.85765"
     inkscape:cy="203.1526"
     inkscape:document-units="px"
     inkscape:current-layer="layer1"
     showgrid="false"
     showborder="false"
     units="px"
     fit-margin-top="0"
     fit-margin-left="0"
     fit-margin-right="0"
     fit-margin-bottom="0"
     inkscape:window-width="1366"
     inkscape:window-height="745"
     inkscape:window-x="-8"
     inkscape:window-y="-8"
     inkscape:window-maximized="1" />
  <metadata
     id="metadata5">
    <rdf:RDF>
      <cc:Work
         rdf:about="">
        <dc:format>image/svg+xml</dc:format>
        <dc:type
           rdf:resource="http://purl.org/dc/dcmitype/StillImage" />
        <dc:title></dc:title>
      </cc:Work>
    </rdf:RDF>
  </metadata>
  <g
     inkscape:label="Layer 1"
     inkscape:groupmode="layer"
     id="layer1"
     transform="translate(100.23942,-83.743264)">
    <g
       id="g984"
       transform="matrix(0.19766575,0,0,0.19766575,-100.23942,82.898046)">
      <path
         id="path884"
         d="M 503.983,4.276 H 8.017 C 3.589,4.276 0,7.865 0,12.292 v 487.415 c 0,4.427 3.589,8.017 8.017,8.017 h 495.967 c 4.427,0 8.017,-3.589 8.017,-8.017 V 12.292 C 512,7.865 508.411,4.276 503.983,4.276 Z"
         style="fill:#e6eaea"
         inkscape:connector-curvature="0" />
      <path
         id="path886"
         d="M 503.983,4.276 H 8.017 C 3.589,4.276 0,7.865 0,12.292 v 110.63 H 512 V 12.292 c 0,-4.427 -3.589,-8.016 -8.017,-8.016 z"
         style="fill:#9baaab"
         inkscape:connector-curvature="0" />
      <path
         id="path888"
         d="M 8.017,4.276 C 3.589,4.276 0,7.865 0,12.292 v 487.415 c 0,4.427 3.589,8.017 8.017,8.017 H 256 V 4.276 Z"
         style="fill:#cdd4d5"
         inkscape:connector-curvature="0" />
      <path
         id="path890"
         d="M 8.017,4.276 C 3.589,4.276 0,7.865 0,12.292 v 110.63 H 256 V 4.276 Z"
         style="fill:#687f82"
         inkscape:connector-curvature="0" />
      <path
         id="path892"
         d="m 264.551,29.929 c -18.566,0 -33.67,15.105 -33.67,33.67 0,18.565 15.105,33.67 33.67,33.67 18.565,0 33.67,-15.105 33.67,-33.67 0,-18.565 -15.104,-33.67 -33.67,-33.67 z"
         style="fill:#4acfd9"
         inkscape:connector-curvature="0" />
      <path
         id="path894"
         d="m 170.489,29.929 c -18.566,0 -33.67,15.105 -33.67,33.67 0,18.565 15.105,33.67 33.67,33.67 18.565,0 33.67,-15.105 33.67,-33.67 0,-18.565 -15.105,-33.67 -33.67,-33.67 z"
         style="fill:#ff8c29"
         inkscape:connector-curvature="0" />
      <path
         id="path896"
         d="m 76.426,29.929 c -18.566,0 -33.67,15.105 -33.67,33.67 0,18.565 15.105,33.67 33.67,33.67 18.565,0 33.67,-15.105 33.67,-33.67 0,-18.565 -15.104,-33.67 -33.67,-33.67 z"
         style="fill:#f0353d"
         inkscape:connector-curvature="0" />
      <g
         id="g902">
	<path
   id="path898"
   d="M 427.023,54.514 H 332.96 c -4.428,0 -8.017,-3.589 -8.017,-8.017 0,-4.428 3.588,-8.017 8.017,-8.017 h 94.063 c 4.428,0 8.017,3.589 8.017,8.017 0,4.428 -3.589,8.017 -8.017,8.017 z"
   style="fill:#ffffff"
   inkscape:connector-curvature="0" />

	<path
   id="path900"
   d="m 469.779,54.514 h -17.102 c -4.428,0 -8.017,-3.589 -8.017,-8.017 0,-4.428 3.588,-8.017 8.017,-8.017 h 17.102 c 4.428,0 8.017,3.589 8.017,8.017 0,4.428 -3.589,8.017 -8.017,8.017 z"
   style="fill:#ffffff"
   inkscape:connector-curvature="0" />

</g>
      <g
         id="g908">
	<path
   id="path904"
   d="m 464.942,290.914 -81.236,-76.959 c -4.664,-4.419 -10.771,-6.767 -17.19,-6.583 -6.422,0.174 -12.392,2.838 -16.809,7.501 -4.419,4.664 -6.757,10.768 -6.583,17.191 0.174,6.421 2.837,12.391 7.501,16.809 l 62.274,58.995 -61.769,55.267 c -4.788,4.283 -7.62,10.175 -7.977,16.589 -0.356,6.414 1.806,12.583 6.091,17.371 4.557,5.092 11.091,8.012 17.927,8.014 0.001,0 0.002,0 0.003,0 5.918,0 11.611,-2.176 16.029,-6.127 l 81.236,-72.685 c 4.996,-4.47 7.915,-10.878 8.01,-17.581 0.094,-6.704 -2.642,-13.192 -7.507,-17.802 z"
   style="fill:#fd6a33"
   inkscape:connector-curvature="0" />

	<path
   id="path906"
   d="m 306.48,219.121 c -11.495,-6.614 -26.226,-2.647 -32.842,8.843 l -81.236,141.094 c -6.618,11.492 -2.65,26.225 8.843,32.843 3.648,2.099 7.792,3.21 11.983,3.21 8.585,0 16.577,-4.619 20.857,-12.053 l 81.236,-141.093 c 3.205,-5.567 4.051,-12.05 2.382,-18.252 -1.67,-6.204 -5.656,-11.386 -11.223,-14.592 z"
   style="fill:#fd6a33"
   inkscape:connector-curvature="0" />

</g>
      <g
         id="g914">
	<path
   id="path910"
   d="m 192.402,369.058 c -6.618,11.492 -2.65,26.225 8.843,32.843 3.648,2.099 7.792,3.21 11.983,3.21 8.585,0 16.577,-4.619 20.857,-12.053 l 21.913,-38.06 v -96.4 z"
   style="fill:#f0353d"
   inkscape:connector-curvature="0" />

	<path
   id="path912"
   d="m 168.877,232.063 c 0.174,-6.422 -2.163,-12.527 -6.582,-17.191 -4.419,-4.664 -10.389,-7.327 -16.811,-7.501 -6.403,-0.175 -12.526,2.165 -17.19,6.582 l -81.236,76.96 c -4.866,4.61 -7.602,11.098 -7.507,17.801 0.095,6.703 3.015,13.112 8.011,17.581 l 81.237,72.686 c 4.417,3.951 10.109,6.126 16.029,6.126 0.001,0 0.002,0 0.003,0 6.836,0 13.371,-2.921 17.927,-8.013 8.842,-9.883 7.996,-25.117 -1.887,-33.96 l -61.769,-55.267 62.274,-58.995 c 4.663,-4.418 7.327,-10.388 7.501,-16.809 z"
   style="fill:#f0353d"
   inkscape:connector-curvature="0" />

</g>
      <g
         id="g916">
</g>
      <g
         id="g918">
</g>
      <g
         id="g920">
</g>
      <g
         id="g922">
</g>
      <g
         id="g924">
</g>
      <g
         id="g926">
</g>
      <g
         id="g928">
</g>
      <g
         id="g930">
</g>
      <g
         id="g932">
</g>
      <g
         id="g934">
</g>
      <g
         id="g936">
</g>
      <g
         id="g938">
</g>
      <g
         id="g940">
</g>
      <g
         id="g942">
</g>
      <g
         id="g944">
</g>
    </g>
  </g>
</svg>
