<?xml version="1.0" encoding="iso-8859-1"?>
<!-- Generator: Adobe Illustrator 21.0.0, SVG Export Plug-In . SVG Version: 6.00 Build 0)  -->
<svg xmlns="http://www.w3.org/2000/svg" xmlns:xlink="http://www.w3.org/1999/xlink" version="1.1" id="Capa_1" x="0px" y="0px" viewBox="0 0 512 512" style="enable-background:new 0 0 512 512;" xml:space="preserve" width="512" height="512">
<g>
	<g>
		<path style="fill:#6E82A6;" d="M18.521,69.008v284.304c0,9.085,7.365,16.449,16.449,16.449h460.58    c9.085,0,16.449-7.365,16.449-16.449V69.008c0-9.085-7.365-16.449-16.449-16.449H34.97C25.886,52.559,18.521,59.923,18.521,69.008    z"/>
		<path style="fill:#30C1FF;" d="M48.335,337.642V84.678c0-2.231,1.808-4.039,4.039-4.039h425.773c2.231,0,4.039,1.808,4.039,4.039    v252.965c0,2.231-1.808,4.039-4.039,4.039H52.374C50.144,341.681,48.335,339.873,48.335,337.642z"/>
		<rect x="235.96" y="369.761" style="fill:#EDE7E9;" width="58.601" height="55.239"/>
		<rect x="235.96" y="369.761" style="fill:#C7B9BF;" width="58.601" height="23.526"/>
		<path style="fill:#6E82A6;" d="M298.614,425.001h-66.707l-71.31,14.636c-1.913,0.393-3.286,2.076-3.286,4.028v11.664    c0,2.271,1.841,4.112,4.112,4.112h207.672c2.271,0,4.112-1.841,4.112-4.112v-11.664c0-1.952-1.373-3.636-3.286-4.028    L298.614,425.001z"/>
		<path style="fill:#3F5173;" d="M369.924,439.637l-71.31-14.636h-18.34l62.054,14.636c1.664,0.393,2.859,2.076,2.859,4.028v11.664    c0,2.271-1.602,4.112-3.579,4.112h27.488c2.271,0,4.112-1.841,4.112-4.112v-11.664    C373.209,441.713,371.836,440.03,369.924,439.637z"/>
	</g>
	<g>
		<path style="fill:#EDE7E9;" d="M226.619,205.717l10.528-65.714c0.343-2.139-0.67-4.267-2.546-5.35l-34.484-19.909    c-1.876-1.083-4.225-0.896-5.906,0.47l-51.646,41.975c-3.005,2.442-3.775,6.713-1.813,10.051l10.377,17.652    c1.43,2.432,1.442,5.445,0.031,7.889L115.354,254.8l40.337,23.289l35.807-62.019c1.411-2.443,4.026-3.94,6.847-3.917l20.476,0.161    C222.693,212.343,226.007,209.541,226.619,205.717z"/>
		<g>
			<path style="fill:#C7B9BF;" d="M140.738,159.32c0.15-0.258,0.331-0.501,0.504-0.747     C141.061,158.814,140.888,159.062,140.738,159.32z"/>
			<path style="fill:#C7B9BF;" d="M140.738,159.32c-0.155,0.266-0.288,0.543-0.409,0.823     C140.459,159.866,140.583,159.587,140.738,159.32z"/>
			<path style="fill:#C7B9BF;" d="M226.619,205.717l10.529-65.714c0.343-2.139-0.67-4.267-2.546-5.35l-15.522-8.962     c1.388,0.801,1.964,2.678,1.448,4.716l-15.872,62.629c-0.923,3.644-3.907,6.637-7.02,7.045l-16.466,2.154     c-2.269,0.297-4.543,1.99-5.953,4.434l-35.807,62.019l16.283,9.401l35.807-62.019c1.411-2.443,4.026-3.94,6.847-3.918     l20.476,0.161C222.693,212.344,226.007,209.541,226.619,205.717z"/>
		</g>
		<path style="fill:#FDCB70;" d="M160.065,317.307c7.685,4.437,17.536,1.724,21.851-6.075c4.235-7.655,1.158-17.335-6.418-21.709    l-79.951-46.16c-7.576-4.374-17.497-2.199-22.009,5.296c-4.597,7.636-2.02,17.524,5.665,21.96l2.265,1.307    c3.291,1.9,3.522,6.563,0.426,8.767C57.582,298,30.786,323.007,15.416,349.628c-30.38,52.62-11.404,75.648,18.452,92.885    c29.856,17.238,59.287,22.157,89.667-30.462c15.37-26.621,23.628-62.33,26.459-92.036c0.361-3.783,4.514-5.915,7.805-4.014    L160.065,317.307z"/>
		<path style="fill:#E08F38;" d="M157.8,316l2.265,1.308c7.685,4.437,17.536,1.724,21.851-6.075    c4.235-7.655,1.158-17.334-6.418-21.709l-19.59-11.31c6,3.464,7.725,12.363,3.461,20.001c-4.344,7.782-12.902,11.241-18.989,7.727    l-1.793-1.035c-2.606-1.505-6.304,0.89-6.949,4.509c-5.065,28.416-15.252,63.012-30.622,89.633    c-28.214,48.868-51.266,50.614-73.35,39.679c2.004,1.296,4.075,2.556,6.203,3.785c29.856,17.238,59.287,22.157,89.667-30.462    c15.37-26.621,23.629-62.33,26.459-92.036C150.356,316.231,154.509,314.1,157.8,316z"/>
		<g>
			<path style="fill:#E08F38;" d="M45.678,396.399c-1.272,0-2.562-0.324-3.743-1.006c-3.587-2.071-4.816-6.658-2.745-10.245     l30.704-53.182c2.071-3.588,6.657-4.816,10.245-2.745c3.587,2.071,4.816,6.658,2.745,10.245L52.18,392.648     C50.791,395.055,48.27,396.399,45.678,396.399z"/>
			<path style="fill:#E08F38;" d="M74.386,412.974c-1.272,0-2.562-0.324-3.743-1.006c-3.587-2.071-4.816-6.658-2.745-10.245     l30.704-53.181c2.071-3.588,6.658-4.816,10.245-2.745c3.587,2.071,4.816,6.658,2.745,10.245l-30.704,53.181     C79.499,411.629,76.978,412.974,74.386,412.974z"/>
		</g>
		<path style="fill:#E08F38;" d="M161.55,309.505l-27.578-15.922c-3.588-2.071-8.175-0.843-10.245,2.745    c-2.071,3.587-0.842,8.174,2.745,10.245l23.51,13.573c0.004-0.044,0.009-0.088,0.013-0.132c0.361-3.783,4.514-5.915,7.805-4.014    l2.264,1.307c1.464,0.845,3.007,1.431,4.575,1.771C166.207,315.609,164.917,311.449,161.55,309.505z"/>
	</g>
	<path style="fill:#46436E;" d="M382.287,163.676c0-1.37-0.071-2.723-0.199-4.06l10.77-10.661c1.623-1.607,1.959-4.106,0.817-6.084   l-8.686-15.045c-1.142-1.978-3.474-2.937-5.677-2.335l-14.626,3.999c-2.194-1.57-4.543-2.932-7.024-4.062l-3.848-14.657   c-0.58-2.209-2.576-3.749-4.86-3.749h-17.372c-2.284,0-4.28,1.54-4.86,3.749l-3.848,14.658c-2.48,1.13-4.83,2.492-7.024,4.062   l-14.626-3.999c-2.203-0.602-4.535,0.357-5.677,2.335l-8.686,15.045c-1.142,1.978-0.806,4.477,0.817,6.084l10.77,10.661   c-0.128,1.336-0.199,2.69-0.199,4.06s0.071,2.723,0.199,4.06l-10.77,10.661c-1.623,1.607-1.959,4.106-0.817,6.084l8.686,15.045   c1.142,1.978,3.474,2.937,5.677,2.335l14.626-3.999c2.194,1.57,4.543,2.932,7.024,4.062l3.848,14.657   c0.58,2.209,2.576,3.749,4.86,3.749h17.372c2.284,0,4.28-1.54,4.86-3.749l3.848-14.657c2.48-1.13,4.83-2.492,7.024-4.062   l14.626,3.999c2.203,0.602,4.535-0.357,5.677-2.335l8.686-15.045c1.142-1.978,0.806-4.477-0.817-6.084l-10.77-10.661   C382.216,166.399,382.287,165.046,382.287,163.676z M340.268,182.245c-10.255,0-18.569-8.314-18.569-18.569   c0-10.256,8.314-18.569,18.569-18.569c10.255,0,18.569,8.314,18.569,18.569C358.837,173.931,350.523,182.245,340.268,182.245z"/>
	<g>
		<path style="fill:#EDE7E9;" d="M340.268,249.746c-4.143,0-7.5-3.357-7.5-7.5v-1c0-4.143,3.357-7.5,7.5-7.5s7.5,3.357,7.5,7.5v1    C347.768,246.389,344.41,249.746,340.268,249.746z"/>
		<path style="fill:#EDE7E9;" d="M323.421,298.58h-0.204c-4.143,0-7.5-3.357-7.5-7.5s3.357-7.5,7.5-7.5h0.19    c0.304-0.001,0.619-0.016,0.924-0.045c4.123-0.397,7.786,2.627,8.182,6.75c0.396,4.124-2.627,7.786-6.75,8.182    C324.992,298.541,324.204,298.579,323.421,298.58z M295.722,298.58h-1.833c-4.143,0-7.5-3.357-7.5-7.5s3.357-7.5,7.5-7.5h1.833    c4.143,0,7.5,3.357,7.5,7.5S299.864,298.58,295.722,298.58z M266.393,298.58h-1.833c-4.143,0-7.5-3.357-7.5-7.5s3.357-7.5,7.5-7.5    h1.833c4.143,0,7.5,3.357,7.5,7.5S270.535,298.58,266.393,298.58z M237.063,298.58h-1.833c-4.142,0-7.5-3.357-7.5-7.5    s3.358-7.5,7.5-7.5h1.833c4.142,0,7.5,3.357,7.5,7.5S241.206,298.58,237.063,298.58z M340.268,279.075c-4.143,0-7.5-3.357-7.5-7.5    v-1.833c0-4.143,3.357-7.5,7.5-7.5s7.5,3.357,7.5,7.5v1.833C347.768,275.718,344.41,279.075,340.268,279.075z"/>
		<path style="fill:#EDE7E9;" d="M207.717,298.58h-1c-4.142,0-7.5-3.357-7.5-7.5s3.358-7.5,7.5-7.5h1c4.142,0,7.5,3.357,7.5,7.5    S211.859,298.58,207.717,298.58z"/>
	</g>
</g>















</svg>
